<svg width="480" height="480" viewBox="0 0 480 480" fill="none" xmlns="http://www.w3.org/2000/svg">
<path d="M479.416 80H320V240H480L479.416 80Z" fill="#F7F7F7"/>
<rect x="340" y="100" width="120" height="120" fill="url(#paint0_linear_94_1853)"/>
<path d="M320 100H340V220H320V100Z" fill="url(#paint1_linear_94_1853)"/>
<rect x="460" y="80" width="20" height="140" fill="url(#paint2_linear_94_1853)"/>
<rect x="340" y="240" width="20" height="140" transform="rotate(-90 340 240)" fill="url(#paint3_linear_94_1853)"/>
<rect x="320" y="220" width="20" height="20" fill="#7B0084"/>
<rect x="320" y="100" width="20" height="140" transform="rotate(-90 320 100)" fill="url(#paint4_linear_94_1853)"/>
<path d="M319.416 80H160V240H320L319.416 80Z" fill="#F7F7F7"/>
<rect x="180" y="100" width="120" height="120" fill="url(#paint5_linear_94_1853)"/>
<path d="M160 100H180V220H160V100Z" fill="url(#paint6_linear_94_1853)"/>
<rect x="300" y="80" width="20" height="140" fill="url(#paint7_linear_94_1853)"/>
<rect x="180" y="240" width="20" height="140" transform="rotate(-90 180 240)" fill="url(#paint8_linear_94_1853)"/>
<rect x="160" y="220" width="20" height="20" fill="#7B0084"/>
<rect x="160" y="100" width="20" height="140" transform="rotate(-90 160 100)" fill="url(#paint9_linear_94_1853)"/>
<path d="M159.416 80H0V240H160L159.416 80Z" fill="#F7F7F7"/>
<rect x="20" y="100" width="120" height="120" fill="url(#paint10_linear_94_1853)"/>
<path d="M0 100H20V220H0V100Z" fill="url(#paint11_linear_94_1853)"/>
<rect x="140" y="80" width="20" height="140" fill="url(#paint12_linear_94_1853)"/>
<rect x="20" y="240" width="20" height="140" transform="rotate(-90 20 240)" fill="url(#paint13_linear_94_1853)"/>
<rect y="220" width="20" height="20" fill="#7B0084"/>
<rect y="100" width="20" height="140" transform="rotate(-90 0 100)" fill="url(#paint14_linear_94_1853)"/>
<path d="M319.416 240H160V400H320L319.416 240Z" fill="#F7F7F7"/>
<rect x="180" y="260" width="120" height="120" fill="url(#paint15_linear_94_1853)"/>
<path d="M160 260H180V380H160V260Z" fill="url(#paint16_linear_94_1853)"/>
<rect x="300" y="240" width="20" height="140" fill="url(#paint17_linear_94_1853)"/>
<rect x="180" y="400" width="20" height="140" transform="rotate(-90 180 400)" fill="url(#paint18_linear_94_1853)"/>
<rect x="160" y="380" width="20" height="20" fill="#7B0084"/>
<rect x="160" y="260" width="20" height="140" transform="rotate(-90 160 260)" fill="url(#paint19_linear_94_1853)"/>
<defs>
<linearGradient id="paint0_linear_94_1853" x1="400" y1="100" x2="400" y2="220" gradientUnits="userSpaceOnUse">
<stop stop-color="#F411FF"/>
<stop offset="1" stop-color="#9900A4"/>
</linearGradient>
<linearGradient id="paint1_linear_94_1853" x1="330" y1="100" x2="330" y2="220" gradientUnits="userSpaceOnUse">
<stop stop-color="#F66AFE"/>
<stop offset="1" stop-color="#F13CFD"/>
</linearGradient>
<linearGradient id="paint2_linear_94_1853" x1="470" y1="80" x2="470" y2="220" gradientUnits="userSpaceOnUse">
<stop stop-color="#9900A4"/>
<stop offset="1" stop-color="#6B0073"/>
</linearGradient>
<linearGradient id="paint3_linear_94_1853" x1="350" y1="380" x2="350" y2="240" gradientUnits="userSpaceOnUse">
<stop stop-color="#7B0084"/>
<stop offset="1" stop-color="#6B0073"/>
</linearGradient>
<linearGradient id="paint4_linear_94_1853" x1="330" y1="100" x2="330" y2="240" gradientUnits="userSpaceOnUse">
<stop stop-color="#F66AFE"/>
<stop offset="1" stop-color="#F056F9"/>
</linearGradient>
<linearGradient id="paint5_linear_94_1853" x1="240" y1="100" x2="240" y2="220" gradientUnits="userSpaceOnUse">
<stop stop-color="#F411FF"/>
<stop offset="1" stop-color="#9900A4"/>
</linearGradient>
<linearGradient id="paint6_linear_94_1853" x1="170" y1="100" x2="170" y2="220" gradientUnits="userSpaceOnUse">
<stop stop-color="#F66AFE"/>
<stop offset="1" stop-color="#F13CFD"/>
</linearGradient>
<linearGradient id="paint7_linear_94_1853" x1="310" y1="80" x2="310" y2="220" gradientUnits="userSpaceOnUse">
<stop stop-color="#9900A4"/>
<stop offset="1" stop-color="#6B0073"/>
</linearGradient>
<linearGradient id="paint8_linear_94_1853" x1="190" y1="380" x2="190" y2="240" gradientUnits="userSpaceOnUse">
<stop stop-color="#7B0084"/>
<stop offset="1" stop-color="#6B0073"/>
</linearGradient>
<linearGradient id="paint9_linear_94_1853" x1="170" y1="100" x2="170" y2="240" gradientUnits="userSpaceOnUse">
<stop stop-color="#F66AFE"/>
<stop offset="1" stop-color="#F056F9"/>
</linearGradient>
<linearGradient id="paint10_linear_94_1853" x1="80" y1="100" x2="80" y2="220" gradientUnits="userSpaceOnUse">
<stop stop-color="#F411FF"/>
<stop offset="1" stop-color="#9900A4"/>
</linearGradient>
<linearGradient id="paint11_linear_94_1853" x1="10" y1="100" x2="10" y2="220" gradientUnits="userSpaceOnUse">
<stop stop-color="#F66AFE"/>
<stop offset="1" stop-color="#F13CFD"/>
</linearGradient>
<linearGradient id="paint12_linear_94_1853" x1="150" y1="80" x2="150" y2="220" gradientUnits="userSpaceOnUse">
<stop stop-color="#9900A4"/>
<stop offset="1" stop-color="#6B0073"/>
</linearGradient>
<linearGradient id="paint13_linear_94_1853" x1="30" y1="380" x2="30" y2="240" gradientUnits="userSpaceOnUse">
<stop stop-color="#7B0084"/>
<stop offset="1" stop-color="#6B0073"/>
</linearGradient>
<linearGradient id="paint14_linear_94_1853" x1="10" y1="100" x2="9.99996" y2="240" gradientUnits="userSpaceOnUse">
<stop stop-color="#F66AFE"/>
<stop offset="1" stop-color="#F056F9"/>
</linearGradient>
<linearGradient id="paint15_linear_94_1853" x1="240" y1="260" x2="240" y2="380" gradientUnits="userSpaceOnUse">
<stop stop-color="#F411FF"/>
<stop offset="1" stop-color="#9900A4"/>
</linearGradient>
<linearGradient id="paint16_linear_94_1853" x1="170" y1="260" x2="170" y2="380" gradientUnits="userSpaceOnUse">
<stop stop-color="#F66AFE"/>
<stop offset="1" stop-color="#F13CFD"/>
</linearGradient>
<linearGradient id="paint17_linear_94_1853" x1="310" y1="240" x2="310" y2="380" gradientUnits="userSpaceOnUse">
<stop stop-color="#9900A4"/>
<stop offset="1" stop-color="#6B0073"/>
</linearGradient>
<linearGradient id="paint18_linear_94_1853" x1="190" y1="540" x2="190" y2="400" gradientUnits="userSpaceOnUse">
<stop stop-color="#7B0084"/>
<stop offset="1" stop-color="#6B0073"/>
</linearGradient>
<linearGradient id="paint19_linear_94_1853" x1="170" y1="260" x2="170" y2="400" gradientUnits="userSpaceOnUse">
<stop stop-color="#F66AFE"/>
<stop offset="1" stop-color="#F056F9"/>
</linearGradient>
</defs>
</svg>
